# xmcd
#
# Track frame offsets: 
#        183
#        17568
#        31558
#        67743
#        82893
#        96538
#        110475
#        121660
#        135853
#        152568
#        168363
#        182433
#        197588
#        214068
#        227273
#        243605
#        259440
#        281393
#        294735
#        310690
#
# Disc length: 4484 seconds
#
# Revision: 8
# Processed by: cddbd v1.5.2PL0 Copyright (c) Steve Scherf et al.
# Submitted via: ExactAudioCopy v1.0b3
#
DISCID=fb118214
DTITLE=Various Artist - Nothin' But The Blues - Disc 3
DYEAR=1998
DGENRE=Blues
TTITLE0=Jimmy Reed - Cry Before I Go
TTITLE1=Lightnin' Hopkins - War Is Starting Again
TTITLE2=Albert Collins - How Blue Can You Get
TTITLE3=Louisiana Red - You're Gonna Need Me, Baby
TTITLE4=Junior Wells - Junior's Wail
TTITLE5=King Biscuit Boy With The Ronnie Hawkins Band - Neighbour Neig
TTITLE5=hbour
TTITLE6=Ike Turner - Ho Ho
TTITLE7=Buddy Guy - Sit And Cry (The Blues)
TTITLE8=Charlie Musselwhite - Trouble No More
TTITLE9=Buddy Reed - Blues For Mud
TTITLE10=Muddy Waters - Got My Mojo Working
TTITLE11=Jimmy Reed - Down At The Corner Grocery Store
TTITLE12=U.P. Wilson - Johnny B Goode
TTITLE13=Sonny Boy Williamson - Bye Bye Bird
TTITLE14=The Paul Delay Band - All My Money Gone
TTITLE15=John Lee Hooker - Black Man Blues
TTITLE16=Paul Orta And The Kingpins - Boy Scout Plan
TTITLE17=Earl Hooker - Wa-Wa Blues (Part 2)
TTITLE18=The Mighty Houserockers Featuring Les Wilson - Madison Blues
TTITLE19=Luther Allison - You're Gonna Need Me
EXTD=YEAR: 1998
EXTT0=
EXTT1=
EXTT2=
EXTT3=
EXTT4=
EXTT5=
EXTT6=
EXTT7=
EXTT8=
EXTT9=
EXTT10=
EXTT11=
EXTT12=
EXTT13=
EXTT14=
EXTT15=
EXTT16=
EXTT17=
EXTT18=
EXTT19=
PLAYORDER=
